<?xml version="1.0" encoding="utf-8"?>
<!-- Generator: Adobe Illustrator 24.2.1, SVG Export Plug-In . SVG Version: 6.00 Build 0)  -->
<svg version="1.1" id="레이어_1" xmlns="http://www.w3.org/2000/svg" xmlns:xlink="http://www.w3.org/1999/xlink" x="0px"
	 y="0px" viewBox="0 0 14 14" style="enable-background:new 0 0 14 14;" xml:space="preserve">
<style type="text/css">
	.st0{fill:#EE771C;}
</style>
<g>
	<path class="st0" d="M5.9,11.3c-3,0-5.5-2.4-5.5-5.5s2.4-5.5,5.5-5.5s5.5,2.4,5.5,5.5c0,0,0,0,0,0C11.3,8.9,8.9,11.3,5.9,11.3z
		 M5.9,1.5c-2.4,0-4.4,2-4.4,4.4c0,2.4,2,4.4,4.4,4.4s4.4-2,4.4-4.4c0,0,0,0,0,0C10.2,3.4,8.3,1.5,5.9,1.5z"/>
	<path class="st0" d="M5.8,11.5c-1.5,0-2.9-0.6-4-1.6c-1.1-1.1-1.7-2.5-1.7-4c0-1.5,0.6-2.9,1.6-4s2.5-1.7,4-1.7c0,0,0,0,0,0
		c1.5,0,2.9,0.6,4,1.6c1.1,1.1,1.7,2.5,1.7,4C11.5,9,9,11.5,5.8,11.5L5.8,11.5C5.9,11.5,5.8,11.5,5.8,11.5z M5.8,0.6
		C5.8,0.6,5.8,0.6,5.8,0.6c-1.4,0-2.7,0.6-3.7,1.5c-1,1-1.5,2.3-1.5,3.7c0,1.4,0.6,2.7,1.5,3.7c1,1,2.3,1.5,3.7,1.5c0,0,0,0,0,0l0,0
		c2.9,0,5.3-2.4,5.3-5.3c0-1.4-0.6-2.7-1.5-3.7C8.6,1.1,7.3,0.6,5.8,0.6z M5.8,10.4C5.8,10.4,5.8,10.4,5.8,10.4
		c-2.5,0-4.6-2.1-4.6-4.6c0-1.2,0.5-2.4,1.4-3.2c0.9-0.9,2-1.3,3.2-1.3c0,0,0,0,0,0h0c2.5,0,4.6,2.1,4.6,4.6c0,1.2-0.5,2.4-1.4,3.3
		C8.2,10,7.1,10.4,5.8,10.4z M5.8,1.6c-1.1,0-2.2,0.4-3,1.2c-0.8,0.8-1.2,1.8-1.2,3c0,2.3,1.9,4.2,4.2,4.2c0,0,0,0,0,0
		c1.1,0,2.2-0.4,3-1.2C9.6,8,10,7,10.1,5.9C10,3.5,8.2,1.7,5.8,1.6C5.9,1.6,5.8,1.6,5.8,1.6z"/>
</g>
<g>
	<path class="st0" d="M13.3,13.8c-0.1,0-0.3-0.1-0.4-0.2L9,9.7C8.8,9.5,8.8,9.2,9,9s0.5-0.2,0.7,0l3.9,3.9c0.2,0.2,0.2,0.5,0,0.8
		C13.6,13.8,13.4,13.8,13.3,13.8z"/>
	<path class="st0" d="M13.3,14C13.3,14,13.3,14,13.3,14c-0.2,0-0.4-0.1-0.5-0.2L8.8,9.8C8.7,9.7,8.6,9.5,8.6,9.3
		c0-0.2,0.1-0.4,0.2-0.5c0.3-0.3,0.7-0.3,1,0l3.9,3.9c0.3,0.3,0.3,0.7,0,1C13.7,13.9,13.5,14,13.3,14z M13.3,13.6L13.3,13.6
		c0.1,0,0.2,0,0.2-0.1c0.1-0.1,0.1-0.4,0-0.5L9.6,9.1C9.4,9,9.2,9,9.1,9.1C9,9.2,9,9.2,9,9.3c0,0.1,0,0.2,0.1,0.2l3.9,3.9
		C13.1,13.6,13.2,13.6,13.3,13.6C13.3,13.6,13.3,13.6,13.3,13.6L13.3,13.6z"/>
</g>
</svg>
