<svg xmlns="http://www.w3.org/2000/svg" width="300" height="200" viewBox="0 0 300 200">
    <defs>
        <style>
            .cls-1{fill:#fff}
        </style>
    </defs>
    <g id="icon_03" transform="translate(-1205 -663)">
        <g id="그룹_2464" transform="translate(1272 700)">
            <g id="그룹_2461" transform="translate(78.987 75.056)">
                <path id="패스_1093" d="M1667.8 1046.551v16.056h-35.322v-16.056a17.29 17.29 0 0 1 5.523-12.695 17 17 0 0 1 3.107-2.314q.469-.279.96-.524a11.18 11.18 0 0 1-3.155-7.793 11.018 11.018 0 0 1 .218-2.2 11.224 11.224 0 1 1 19.08 9.995 17.368 17.368 0 0 1 9.589 15.531z" class="cls-1" transform="translate(-1632.474 -1012)"/>
            </g>
            <g id="그룹_2462" transform="translate(51.872 75.056)">
                <path id="패스_1094" d="M1620.338 1046.551v16.056h-35.322v-16.056a17.3 17.3 0 0 1 5.523-12.695 17 17 0 0 1 3.107-2.314q.47-.279.961-.524a11.178 11.178 0 0 1-3.155-7.793 11.018 11.018 0 0 1 .218-2.2 11.224 11.224 0 1 1 19.08 9.995 17.368 17.368 0 0 1 9.588 15.531z" class="cls-1" transform="translate(-1585.016 -1012)"/>
            </g>
            <g id="그룹_2463">
                <path id="패스_1095" d="M1659.544 962.5a24.163 24.163 0 0 1-24.162 24.162h-22.374v-7.749h22.374a16.413 16.413 0 1 0 0-32.826c-.206 0-.439.005-.7.016-.109.005-.217.005-.32.005a7.743 7.743 0 0 1-7.31-10.317 16.43 16.43 0 0 0-15.488-21.863c-.538 0-1.085.026-1.622.078a7.522 7.522 0 0 1-.759.036 7.751 7.751 0 0 1-7.275-5.083 31.469 31.469 0 0 0-29.457-20.572 31.049 31.049 0 0 0-18.872 6.318 31.583 31.583 0 0 0-11.164 16 7.749 7.749 0 0 1-7.418 5.517c-.109 0-.217 0-.326-.005-.5-.021-.929-.031-1.328-.031a31.361 31.361 0 1 0 0 62.722h7.424v7.749h-7.424a39.11 39.11 0 1 1 0-78.22c.553 0 1.1.015 1.648.036a39.126 39.126 0 0 1 74.2-2.185c.78-.072 1.575-.114 2.376-.114a24.175 24.175 0 0 1 22.8 32.18c.336-.011.677-.021 1.023-.021a24.163 24.163 0 0 1 24.154 24.167z" class="cls-1" transform="translate(-1494.228 -880.634)"/>
            </g>
        </g>
        <path id="패스_1096" d="M1647.837 1079.983l9.743-9.223-9.743-9.223v5.524H1632.6v7.4h15.239z" class="cls-1" transform="translate(-281.54 -258.177)"/>
        <path id="사각형_716" fill="none" d="M0 0H300V200H0z" transform="translate(1205 663)"/>
    </g>
</svg>
