<svg xmlns="http://www.w3.org/2000/svg" width="300" height="200" viewBox="0 0 300 200">
    <defs>
        <style>
            .cls-1{fill:#fff}
        </style>
    </defs>
    <g id="icon_01" transform="translate(-415 -663)">
        <g id="그룹_2460" transform="translate(482 699)">
            <path id="패스_1091" d="M329.565 223.559c-.341 0-.682.01-1.023.026a24.165 24.165 0 0 0-22.8-32.185c-.8 0-1.591.041-2.371.119a39.124 39.124 0 0 0-74.2 2.18c-.547-.021-1.1-.037-1.653-.037a39.113 39.113 0 0 0 0 78.226h5.719a38.7 38.7 0 0 1-1.048-7.749h-4.67a31.364 31.364 0 0 1 0-62.727c.4 0 .837.01 1.333.031.108.005.211.005.32.005a7.746 7.746 0 0 0 7.419-5.518 31.633 31.633 0 0 1 11.164-16 31.067 31.067 0 0 1 18.877-6.319 31.481 31.481 0 0 1 29.457 20.577 7.753 7.753 0 0 0 7.274 5.084c.248 0 .5-.015.754-.036a15.555 15.555 0 0 1 1.622-.083 16.416 16.416 0 0 1 15.488 21.863 7.755 7.755 0 0 0 7.31 10.321c.109 0 .217-.005.326-.01.263-.01.491-.015.7-.015a16.415 16.415 0 1 1 0 32.831h-19.949a38.738 38.738 0 0 1-1.049 7.749h21a24.165 24.165 0 1 0 0-48.329z" class="cls-1" transform="translate(-188.416 -165.858)"/>
            <path id="패스_1092" d="M335.533 294.955a31.116 31.116 0 0 0-2.2-2.868q-.46-.537-.95-1.056a31 31 0 0 0-43.816-1.29c-.582.547-1.14 1.116-1.672 1.7a31.292 31.292 0 0 0-2.28 2.81 31.015 31.015 0 0 0 .011 36.084 31.3 31.3 0 0 0 2.278 2.812c.122.135.245.271.372.4a30.8 30.8 0 0 0 21.642 9.718c.168.006.334.006.5.007v.018c.138 0 .275 0 .412-.009s.273.009.41.009v-.016a30.97 30.97 0 0 0 23.075-10.785 31.421 31.421 0 0 0 2.2-2.868 30.971 30.971 0 0 0 .018-34.67zm-44.484-2.586a27.292 27.292 0 0 1 10.162-6.079 29.791 29.791 0 0 0-4.947 9.589 35.3 35.3 0 0 1-6.239-2.492c.332-.346.675-.687 1.024-1.018zm-3.388 3.845c.126.07.255.143.384.213a38.487 38.487 0 0 0 7.246 2.929 54.843 54.843 0 0 0-1.387 10.217h-11.319a27.1 27.1 0 0 1 5.076-13.359zm.009 32.161a27.126 27.126 0 0 1-5.206-15.189h11.384a56.019 56.019 0 0 0 1.438 12.052 38.548 38.548 0 0 0-7.241 2.929c-.128.069-.251.133-.375.208zm2.364 2.826a35.211 35.211 0 0 1 6.226-2.487 29.823 29.823 0 0 0 4.924 9.566 27.192 27.192 0 0 1-11.15-7.08zm17.8 7.948c-2.3-1.015-4.515-3.449-6.3-7.018a32.372 32.372 0 0 1-1.763-4.311 53.358 53.358 0 0 1 8.148-1.071zm.114-16.018a57.074 57.074 0 0 0-9.158 1.21 52.465 52.465 0 0 1-1.331-11.155h10.561zm.094-13.557h-10.523a51.19 51.19 0 0 1 1.277-9.32 57.215 57.215 0 0 0 9.308 1.215zm.083-11.718a53.578 53.578 0 0 1-8.349-1.082 32.556 32.556 0 0 1 1.759-4.3c1.88-3.761 4.238-6.266 6.678-7.171zm24.362-.95a27.106 27.106 0 0 1 4.595 12.668h-11.319a55.375 55.375 0 0 0-1.25-9.622 35.357 35.357 0 0 0 7.978-3.046zm-2.733-3.4c.157.168.311.336.464.506-.267.135-.54.269-.818.4a34.168 34.168 0 0 1-5.821 2.04 30.262 30.262 0 0 0-5.126-10.16 27.268 27.268 0 0 1 11.305 7.217zm-17.931-8.052c2.3 1.015 4.516 3.451 6.3 7.017a32.97 32.97 0 0 1 1.9 4.735 52.671 52.671 0 0 1-8.289.72zm-.112 16.089a56.076 56.076 0 0 0 9.26-.829 51.588 51.588 0 0 1 1.171 8.858h-10.484zm-.083 11.641H322.2a52.707 52.707 0 0 1-1.226 10.693 56.088 56.088 0 0 0-9.414-.831zm-.178 26.116l.089-12.639a52.614 52.614 0 0 1 8.491.723 32.88 32.88 0 0 1-1.9 4.746c-1.884 3.763-4.239 6.27-6.68 7.17zm7.044-1.036a30.389 30.389 0 0 0 5.094-10.124 34.273 34.273 0 0 1 5.816 2.039c.273.127.538.257.8.388a27.493 27.493 0 0 1-11.709 7.699zm13.978-10.588a35.328 35.328 0 0 0-7.958-3.036 56.185 56.185 0 0 0 1.3-11.456H337.2a27.21 27.21 0 0 1-4.727 14.494z" class="cls-1" transform="translate(-227.174 -215.342)"/>
        </g>
        <path id="사각형_714" fill="none" d="M0 0H300V200H0z" transform="translate(415 663)"/>
    </g>
</svg>
