<svg xmlns="http://www.w3.org/2000/svg" width="300" height="200" viewBox="0 0 300 200">
    <defs>
        <style>
            .cls-1{fill:#fff}
        </style>
    </defs>
    <g id="icon_02" transform="translate(-810 -663)">
        <g id="그룹_2458" transform="translate(877 697)">
            <path id="패스_1089" d="M1223.916 1697.573a24.162 24.162 0 0 1-24.163 24.162h-22.374v-7.749h22.374a16.413 16.413 0 1 0 0-32.826c-.206 0-.439.005-.7.016-.108.005-.217.005-.321.005a7.744 7.744 0 0 1-7.31-10.317 16.429 16.429 0 0 0-15.49-21.864c-.537 0-1.085.026-1.622.077a7.527 7.527 0 0 1-.76.036 7.75 7.75 0 0 1-7.274-5.084 31.47 31.47 0 0 0-29.457-20.572 31.052 31.052 0 0 0-18.872 6.318 31.587 31.587 0 0 0-11.164 16 7.749 7.749 0 0 1-7.418 5.517c-.108 0-.217 0-.326-.005-.5-.021-.93-.031-1.328-.031a31.361 31.361 0 1 0 0 62.722h7.424v7.749h-7.424a39.11 39.11 0 1 1 0-78.22c.553 0 1.1.015 1.648.036a39.125 39.125 0 0 1 74.2-2.186c.78-.072 1.576-.113 2.377-.113a24.174 24.174 0 0 1 22.8 32.18c.336-.01.677-.021 1.023-.021a24.163 24.163 0 0 1 24.157 24.17z" class="cls-1" transform="translate(-1058.599 -1615.71)"/>
        </g>
        <path id="패스_1090" d="M1206.112 1781.485v-17.213h-23.86v-9.041a11.345 11.345 0 1 0-6.852 0v9.041h-23.86v17.213a8.721 8.721 0 1 0 6.852 0v-10.361h17.008v10.361a8.721 8.721 0 1 0 6.852 0v-10.361h17.008v10.361a8.722 8.722 0 1 0 6.852 0zm-52.682-15.324" class="cls-1" transform="translate(-219.169 -969.016)"/>
        <path id="사각형_715" fill="none" d="M0 0H300V200H0z" transform="translate(810 663)"/>
    </g>
</svg>
