<svg xmlns="http://www.w3.org/2000/svg" width="374" height="112" viewBox="0 0 374 112">
    <defs>
        <style>
            .cls-4{fill:#bd2b34;fill-rule:evenodd}.cls-5{fill:#c6c6c6}
        </style>
    </defs>
    <g id="logo" transform="translate(-773 -212)">
        <g id="그룹_2544" transform="translate(404.795 -2585.581)">
            <g id="그룹_2542" transform="translate(395.205 2819.581)">
                <g id="그룹_2540">
                    <g id="그룹_2538" transform="translate(0 .034)">
                        <g id="그룹_2537" transform="translate(33.061)">
                            <g id="그룹_2536">
                                <path id="패스_1183" fill="#de7c3a" d="M460.429 2819.615a31.858 31.858 0 0 0-12.895 2.589 31.521 31.521 0 0 0-10.167 7.082 32.921 32.921 0 0 0-6.7 10.409 33.656 33.656 0 0 0-2.4 12.7v.182a35.2 35.2 0 0 0 2.367 13.009 30.792 30.792 0 0 0 6.606 10.328 30.313 30.313 0 0 0 10.178 6.813 34.117 34.117 0 0 0 13.1 2.451 36.181 36.181 0 0 0 14.934-2.945 44.668 44.668 0 0 0 11.215-7.1l.149-.121v-27.78h-27.2v12.739H473v8.405l-.708.458a20.451 20.451 0 0 1-11.336 3.072 17.5 17.5 0 0 1-7.182-1.434 17.1 17.1 0 0 1-5.63-4.055 18.661 18.661 0 0 1-3.7-6.177 22.362 22.362 0 0 1-1.321-7.8v-.18a20.819 20.819 0 0 1 1.321-7.441 18.786 18.786 0 0 1 3.632-6.047 18.018 18.018 0 0 1 5.376-4.1 14.565 14.565 0 0 1 6.556-1.517 23.35 23.35 0 0 1 4.639.436 20.274 20.274 0 0 1 3.923 1.222 21.644 21.644 0 0 1 3.5 1.923 32.86 32.86 0 0 1 3.4 2.644l.394.347 8.936-11.157-.288-.251a40.282 40.282 0 0 0-4.9-3.708 28.934 28.934 0 0 0-5.443-2.729 34.908 34.908 0 0 0-6.266-1.68 44.066 44.066 0 0 0-7.474-.587z" transform="translate(-428.266 -2819.615)"/>
                            </g>
                        </g>
                        <path id="패스_1184" fill="#bd2b34" d="M431.725 2831.99s6.5-10.61 17.389-12.278h-47.821l-1.816 32.09 8.092 5.365a31.871 31.871 0 0 1 4.954-1.684 23.184 23.184 0 0 1 5.69-.681 13.479 13.479 0 0 1 8.134 2.287 7.442 7.442 0 0 1 3.14 6.392v.188a7.928 7.928 0 0 1-2.862 6.58 12.177 12.177 0 0 1-7.781 2.287 17.5 17.5 0 0 1-7.914-1.822 33.164 33.164 0 0 1-7.27-5.093l-8.46 10.079a36 36 0 0 0 10.367 6.955 33.179 33.179 0 0 0 13.458 2.526 34.5 34.5 0 0 0 10.57-1.616 22.8 22.8 0 0 0 7.929-4.331 19.638 19.638 0 0 0 4.9-6.892 22.881 22.881 0 0 0 1.736-9.12v-.182a22.3 22.3 0 0 0-1.736-9.212 16.756 16.756 0 0 0-4.81-6.306 20.358 20.358 0 0 0-7.122-3.626 37.256 37.256 0 0 0-9.557-1.184 28.226 28.226 0 0 0-4.551.317c-1.27.213-2.543.465-3.815.764l.724-11.8z" transform="translate(-395.205 -2819.615)"/>
                        <path id="패스_1185" fill="#8b1c1e" d="M444.158 2863.218v-.182a22.285 22.285 0 0 0-1.737-9.212 16.744 16.744 0 0 0-4.809-6.306 20.349 20.349 0 0 0-7.122-3.626c-.354-.1-.727-.2-1.114-.29a34.612 34.612 0 0 0-1.117 8.794v.182a35.2 35.2 0 0 0 2.367 13.009 30.792 30.792 0 0 0 6.606 10.328c.59.6 1.212 1.177 1.854 1.729a19.948 19.948 0 0 0 3.335-5.306 22.864 22.864 0 0 0 1.737-9.12z" transform="translate(-395.205 -2819.615)"/>
                    </g>
                    <g id="그룹_2539" transform="translate(99.87)">
                        <path id="패스_1186" d="M547.221 2843.577l11.265-11.265a7.457 7.457 0 0 0 0-10.547 7.458 7.458 0 0 0-10.546 0l-11.265 11.266a7.457 7.457 0 0 0 10.546 10.546z" class="cls-4" transform="translate(-495.075 -2819.581)"/>
                        <path id="패스_1187" d="M558.486 2872.446l-16.819-16.819a5.344 5.344 0 0 0-7.452-.088c-2.322 2.322-5.86 4.054-9.684.231s-2.09-7.361.232-9.683a5.344 5.344 0 0 0-.089-7.453l-16.868-16.868a7.457 7.457 0 1 0-10.547 10.546l20.067 20.067-20.067 20.067a7.458 7.458 0 0 0 10.547 10.547l20.067-20.067 20.067 20.067a7.457 7.457 0 1 0 10.546-10.547z" class="cls-4" transform="translate(-495.075 -2819.581)"/>
                    </g>
                </g>
                <g id="그룹_2541" transform="translate(191.457 .989)">
                    <path id="패스_1188" d="M600.308 2832.952a12.035 12.035 0 0 1 10.91 6.191l-4.77 3.7a10.514 10.514 0 0 0-2.537-2.639 5.964 5.964 0 0 0-3.552-1.015 6.45 6.45 0 0 0-2.665.533 6.355 6.355 0 0 0-2.055 1.446 6.531 6.531 0 0 0-1.345 2.157 7.434 7.434 0 0 0-.482 2.715 7.633 7.633 0 0 0 .482 2.74 6.476 6.476 0 0 0 1.345 2.182 6.377 6.377 0 0 0 2.055 1.447 6.465 6.465 0 0 0 2.665.532 5.957 5.957 0 0 0 3.552-1.015 10.073 10.073 0 0 0 2.486-2.588l4.771 3.654a11.92 11.92 0 0 1-10.86 6.242 13.784 13.784 0 0 1-5.3-1.015 13.432 13.432 0 0 1-4.288-2.791 13.286 13.286 0 0 1-2.868-14.564 12.7 12.7 0 0 1 2.868-4.136 13.64 13.64 0 0 1 4.288-2.766 13.779 13.779 0 0 1 5.3-1.01z" class="cls-5" transform="translate(-586.809 -2820.57)"/>
                    <path id="패스_1189" d="M623.092 2858.63h-6.85v-38.06h6.85z" class="cls-5" transform="translate(-586.809 -2820.57)"/>
                    <path id="패스_1190" d="M641.919 2832.952a13.766 13.766 0 0 1 9.541 3.781 13.013 13.013 0 0 1 2.892 4.136 12.533 12.533 0 0 1 1.066 5.176 12.7 12.7 0 0 1-1.066 5.2 12.922 12.922 0 0 1-2.892 4.161 13.881 13.881 0 0 1-19.081 0 12.6 12.6 0 0 1-2.867-4.161 12.971 12.971 0 0 1-1.041-5.2 12.736 12.736 0 0 1 3.908-9.312 13.646 13.646 0 0 1 9.54-3.781zm0 6.242a6.091 6.091 0 0 0-4.694 1.954 7.014 7.014 0 0 0-1.8 4.947 6.834 6.834 0 0 0 1.8 4.9 6.172 6.172 0 0 0 4.694 1.9 6.462 6.462 0 0 0 2.563-.508 6.053 6.053 0 0 0 2.055-1.421 6.915 6.915 0 0 0 1.371-2.157 7.137 7.137 0 0 0 .507-2.715 7.34 7.34 0 0 0-.507-2.74 6.86 6.86 0 0 0-1.371-2.182 6.366 6.366 0 0 0-2.055-1.446 6.2 6.2 0 0 0-2.563-.532z" class="cls-5" transform="translate(-586.809 -2820.57)"/>
                    <path id="패스_1191" d="M683.582 2847.567a12.644 12.644 0 0 1-.888 4.847 10.948 10.948 0 0 1-2.436 3.679 10.576 10.576 0 0 1-3.654 2.334 12.524 12.524 0 0 1-4.542.812 12.66 12.66 0 0 1-4.592-.812 10.577 10.577 0 0 1-3.654-2.334 10.9 10.9 0 0 1-2.436-3.679 12.625 12.625 0 0 1-.888-4.847v-14.057h6.8v14.615a4.617 4.617 0 0 0 1.37 3.527 4.762 4.762 0 0 0 3.4 1.294 4.7 4.7 0 0 0 3.35-1.294 4.617 4.617 0 0 0 1.37-3.527v-14.615h6.8z" class="cls-5" transform="translate(-586.809 -2820.57)"/>
                    <path id="패스_1192" d="M715.3 2858.63h-6.293v-3.045a8.556 8.556 0 0 1-3.374 2.715 11.183 11.183 0 0 1-4.694.939 12.013 12.013 0 0 1-4.923-.99 11.353 11.353 0 0 1-3.831-2.74 12.838 12.838 0 0 1-2.512-4.161 15.549 15.549 0 0 1 0-10.5 12.619 12.619 0 0 1 2.537-4.161 11.616 11.616 0 0 1 3.857-2.74 11.882 11.882 0 0 1 4.872-.99 11.019 11.019 0 0 1 4.313.812 8.963 8.963 0 0 1 3.248 2.284v-15.483h6.8zm-13.143-19.487a6.451 6.451 0 0 0-2.487.482 6.167 6.167 0 0 0-3.451 3.553 8.431 8.431 0 0 0 0 5.759 6.828 6.828 0 0 0 1.37 2.183 5.744 5.744 0 0 0 2.056 1.395 6.618 6.618 0 0 0 2.512.482 6.839 6.839 0 0 0 2.309-.406 5.974 5.974 0 0 0 2.055-1.243 6.133 6.133 0 0 0 1.471-2.132 8.919 8.919 0 0 0 0-6.216 6.558 6.558 0 0 0-1.446-2.182 5.554 5.554 0 0 0-2.03-1.269 7 7 0 0 0-2.361-.406z" class="cls-5" transform="translate(-586.809 -2820.57)"/>
                </g>
            </g>
            <g id="그룹_2543" transform="translate(588.522 2867.085)">
                <path id="패스_1193" d="M601.12 2872.359a4.42 4.42 0 0 1 1.707.313 3.567 3.567 0 0 1 1.275.875 3.757 3.757 0 0 1 .789 1.351 5.422 5.422 0 0 1 .271 1.762v6.636h-2.918v-6.225a2.133 2.133 0 0 0-.519-1.524 1.808 1.808 0 0 0-1.384-.551 1.9 1.9 0 0 0-1.426.551 1.991 1.991 0 0 0-.541 1.459v6.29h-2.918v-6.225a2.133 2.133 0 0 0-.518-1.524 1.836 1.836 0 0 0-1.4-.551 1.87 1.87 0 0 0-1.416.551 2.107 2.107 0 0 0-.53 1.524v6.225h-2.918v-10.7h2.681v.951a3.791 3.791 0 0 1 1.3-.875 4.485 4.485 0 0 1 1.73-.313 4.094 4.094 0 0 1 1.869.4 3.365 3.365 0 0 1 1.286 1.135 4.734 4.734 0 0 1 1.535-1.113 4.822 4.822 0 0 1 2.045-.422z" class="cls-5" transform="translate(-588.669 -2867.085)"/>
                <path id="패스_1194" d="M612.338 2872.359a5.672 5.672 0 0 1 1.859.291 3.973 3.973 0 0 1 1.448.865 3.884 3.884 0 0 1 .94 1.427 5.462 5.462 0 0 1 .335 2v6.355h-2.659v-1.038a3.905 3.905 0 0 1-1.394.951 4.882 4.882 0 0 1-1.891.346 4.568 4.568 0 0 1-1.556-.249 3.507 3.507 0 0 1-1.167-.67 2.78 2.78 0 0 1-.725-1 3.233 3.233 0 0 1-.248-1.275 2.7 2.7 0 0 1 1.091-2.291 4.836 4.836 0 0 1 2.972-.821h2.681v-.476a1.87 1.87 0 0 0-.5-1.383 2.058 2.058 0 0 0-1.514-.5 2.9 2.9 0 0 0-1.5.39 6.391 6.391 0 0 0-1.329 1.08l-1.492-1.794a5.754 5.754 0 0 1 4.649-2.208zm-.584 9.056a2.342 2.342 0 0 0 1.61-.583 1.951 1.951 0 0 0 .66-1.535v-.13h-2.292q-1.491 0-1.491 1.081a1 1 0 0 0 .421.865 1.828 1.828 0 0 0 1.092.302z" class="cls-5" transform="translate(-588.669 -2867.085)"/>
                <path id="패스_1195" d="M625.35 2872.467a2.965 2.965 0 0 1 .929.129v2.573h-.779a3.085 3.085 0 0 0-2.053.67 2.611 2.611 0 0 0-.8 2.118v5.339h-2.917v-10.7h2.68v1.276a3.562 3.562 0 0 1 1.3-1.049 3.8 3.8 0 0 1 1.64-.356z" class="cls-5" transform="translate(-588.669 -2867.085)"/>
                <path id="패스_1196" d="M631.034 2877.179l3.848-4.583h3.458l-4.02 4.756 4.344 5.944h-3.328l-4.3-5.9v5.9h-2.918v-16.211h2.918z" class="cls-5" transform="translate(-588.669 -2867.085)"/>
                <path id="패스_1197" d="M644.8 2872.359a5.261 5.261 0 0 1 2.054.389 4.789 4.789 0 0 1 1.588 1.059 4.636 4.636 0 0 1 1.016 1.578 5.264 5.264 0 0 1 .357 1.945 5.986 5.986 0 0 1-.065.886c-.043.289-.086.526-.13.713h-7.52a2.669 2.669 0 0 0 1.081 1.578 3.429 3.429 0 0 0 1.967.541 4.23 4.23 0 0 0 1.589-.292 6.293 6.293 0 0 0 1.394-.789l1.189 1.989a7.252 7.252 0 0 1-1.967 1.178 6.14 6.14 0 0 1-2.291.421 6.289 6.289 0 0 1-2.356-.432 5.612 5.612 0 0 1-1.859-1.189 5.535 5.535 0 0 1-1.222-1.772 5.468 5.468 0 0 1-.443-2.205 5.553 5.553 0 0 1 1.622-3.977 5.5 5.5 0 0 1 1.783-1.189 5.65 5.65 0 0 1 2.213-.432zm-.108 2.356a2.5 2.5 0 0 0-1.643.572 2.936 2.936 0 0 0-.951 1.589h4.907a2.092 2.092 0 0 0-.713-1.6 2.408 2.408 0 0 0-1.592-.561z" class="cls-5" transform="translate(-588.669 -2867.085)"/>
                <path id="패스_1198" d="M658.636 2875.06h-3.047v4.215a1.53 1.53 0 0 0 .486 1.3 2.492 2.492 0 0 0 1.5.368c.173 0 .375-.007.6-.022s.49-.036.778-.065v2.443q-.453.108-.951.183a6.957 6.957 0 0 1-1.059.076 4.686 4.686 0 0 1-3.134-.973 3.779 3.779 0 0 1-1.145-3.047v-4.475h-1.686v-2.463h1.686v-2.7h2.918v2.7h3.047z" class="cls-5" transform="translate(-588.669 -2867.085)"/>
                <path id="패스_1199" d="M668.535 2872.359a5.143 5.143 0 0 1 2.086.421 4.818 4.818 0 0 1 1.642 1.167 5.494 5.494 0 0 1 1.07 1.762 6.159 6.159 0 0 1 .389 2.226 6.248 6.248 0 0 1-.389 2.237 5.5 5.5 0 0 1-1.081 1.784 4.88 4.88 0 0 1-1.642 1.178 5.067 5.067 0 0 1-2.075.421 4.121 4.121 0 0 1-3.2-1.275v4.906h-2.918V2872.6h2.68v1.319a3.65 3.65 0 0 1 1.437-1.157 4.772 4.772 0 0 1 2.001-.403zm-.519 2.637a2.959 2.959 0 0 0-1.005.173 2.431 2.431 0 0 0-.865.529 2.7 2.7 0 0 0-.616.908 3.352 3.352 0 0 0-.238 1.329 3.515 3.515 0 0 0 .227 1.319 2.6 2.6 0 0 0 .616.929 2.5 2.5 0 0 0 .876.541 2.982 2.982 0 0 0 1.005.172 2.746 2.746 0 0 0 1.059-.205 2.664 2.664 0 0 0 .875-.583 2.7 2.7 0 0 0 .595-.919 3.59 3.59 0 0 0 0-2.453 2.8 2.8 0 0 0-.595-.941 2.592 2.592 0 0 0-.875-.594 2.746 2.746 0 0 0-1.059-.201z" class="cls-5" transform="translate(-588.669 -2867.085)"/>
                <path id="패스_1200" d="M678.931 2883.3h-2.918v-16.211h2.918z" class="cls-5" transform="translate(-588.669 -2867.085)"/>
                <path id="패스_1201" d="M686.216 2872.359a5.672 5.672 0 0 1 1.859.291 3.973 3.973 0 0 1 1.448.865 3.9 3.9 0 0 1 .94 1.427 5.462 5.462 0 0 1 .335 2v6.355h-2.659v-1.038a3.905 3.905 0 0 1-1.394.951 4.882 4.882 0 0 1-1.891.346 4.568 4.568 0 0 1-1.556-.249 3.522 3.522 0 0 1-1.168-.67 2.79 2.79 0 0 1-.724-1 3.216 3.216 0 0 1-.248-1.275 2.7 2.7 0 0 1 1.091-2.291 4.835 4.835 0 0 1 2.972-.821h2.679v-.476a1.87 1.87 0 0 0-.5-1.383 2.058 2.058 0 0 0-1.514-.5 2.9 2.9 0 0 0-1.5.39 6.391 6.391 0 0 0-1.329 1.08l-1.492-1.794a5.754 5.754 0 0 1 4.651-2.208zm-.584 9.056a2.342 2.342 0 0 0 1.61-.583 1.951 1.951 0 0 0 .66-1.535v-.13h-2.292q-1.491 0-1.491 1.081a1 1 0 0 0 .421.865 1.828 1.828 0 0 0 1.092.302z" class="cls-5" transform="translate(-588.669 -2867.085)"/>
                <path id="패스_1202" d="M698.752 2872.359A5.126 5.126 0 0 1 703.4 2875l-2.032 1.577a4.521 4.521 0 0 0-1.081-1.124 2.539 2.539 0 0 0-1.513-.432 2.761 2.761 0 0 0-1.135.227 2.708 2.708 0 0 0-.875.616 2.8 2.8 0 0 0-.573.919 3.168 3.168 0 0 0-.2 1.156 3.255 3.255 0 0 0 .2 1.167 2.763 2.763 0 0 0 .573.93 2.7 2.7 0 0 0 .875.616 2.757 2.757 0 0 0 1.135.227 2.541 2.541 0 0 0 1.513-.432 4.308 4.308 0 0 0 1.059-1.1l2.032 1.556a5.075 5.075 0 0 1-4.626 2.659 5.866 5.866 0 0 1-2.258-.432 5.71 5.71 0 0 1-1.827-1.189 5.659 5.659 0 0 1-1.221-6.2 5.389 5.389 0 0 1 1.221-1.762 5.866 5.866 0 0 1 4.085-1.61z" class="cls-5" transform="translate(-588.669 -2867.085)"/>
                <path id="패스_1203" d="M710.338 2872.359a5.256 5.256 0 0 1 2.053.389 4.793 4.793 0 0 1 1.589 1.059 4.651 4.651 0 0 1 1.016 1.578 5.283 5.283 0 0 1 .356 1.945 5.857 5.857 0 0 1-.065.886c-.043.289-.086.526-.129.713h-7.522a2.663 2.663 0 0 0 1.08 1.578 3.429 3.429 0 0 0 1.967.541 4.226 4.226 0 0 0 1.589-.292 6.27 6.27 0 0 0 1.394-.789l1.189 1.989a7.252 7.252 0 0 1-1.967 1.178 6.14 6.14 0 0 1-2.291.421 6.292 6.292 0 0 1-2.356-.432 5.621 5.621 0 0 1-1.859-1.189 5.515 5.515 0 0 1-1.221-1.772 5.451 5.451 0 0 1-.443-2.205 5.547 5.547 0 0 1 1.621-3.977 5.515 5.515 0 0 1 1.783-1.189 5.651 5.651 0 0 1 2.216-.432zm-.108 2.356a2.5 2.5 0 0 0-1.643.572 2.931 2.931 0 0 0-.951 1.589h4.906a2.092 2.092 0 0 0-.713-1.6 2.407 2.407 0 0 0-1.599-.561z" class="cls-5" transform="translate(-588.669 -2867.085)"/>
            </g>
        </g>
        <path id="사각형_720" fill="none" d="M0 0H374V112H0z" transform="translate(773 212)"/>
    </g>
</svg>
